  0
SECTION
  2
HEADER
  0
ENDSEC
  0
SECTION
  2
TABLES
  0
TABLE
  2
LAYER
  70
    153
  0
LAYER
  2
Cylinder
 70
0
 62
15
  6
CONTINUOUS
  0
ENDTAB
  0
ENDSEC
  0
SECTION
  2
ENTITIES
  0
3DFACE
  8
Cylinder
 10
-1.414213
 20
1.414212
 30
0.060185
 11
-1.414213
 21
1.414212
 31
0.124233
 12
-1.847759
 22
0.765366
 32
0.124233
 13
-1.847759
 23
0.765366
 33
0.060185
 62
0
  0
3DFACE
  8
Cylinder
 10
-0.765367
 20
1.847758
 30
0.060185
 11
-0.765367
 21
1.847758
 31
0.124233
 12
-1.414213
 22
1.414212
 32
0.124233
 13
-1.414213
 23
1.414212
 33
0.060185
 62
0
  0
3DFACE
  8
Cylinder
 10
-0.000000
 20
1.999999
 30
0.060185
 11
-0.000000
 21
1.999999
 31
0.124233
 12
-0.765367
 22
1.847758
 32
0.124233
 13
-0.765367
 23
1.847758
 33
0.060185
 62
0
  0
3DFACE
  8
Cylinder
 10
0.765367
 20
1.847759
 30
0.060185
 11
0.765367
 21
1.847759
 31
0.124233
 12
-0.000000
 22
1.999999
 32
0.124233
 13
-0.000000
 23
1.999999
 33
0.060185
 62
0
  0
3DFACE
  8
Cylinder
 10
1.414213
 20
1.414214
 30
0.060184
 11
1.414213
 21
1.414214
 31
0.124233
 12
0.765367
 22
1.847759
 32
0.124233
 13
0.765367
 23
1.847759
 33
0.060185
 62
0
  0
3DFACE
  8
Cylinder
 10
1.847759
 20
0.765367
 30
0.060184
 11
1.847759
 21
0.765367
 31
0.124234
 12
1.414213
 22
1.414214
 32
0.124233
 13
1.414213
 23
1.414214
 33
0.060184
 62
0
  0
3DFACE
  8
Cylinder
 10
2.000000
 20
0.000001
 30
0.060184
 11
2.000000
 21
0.000001
 31
0.124234
 12
1.847759
 22
0.765367
 32
0.124234
 13
1.847759
 23
0.765367
 33
0.060184
 62
0
  0
3DFACE
  8
Cylinder
 10
1.847759
 20
-0.765366
 30
0.060184
 11
1.847759
 21
-0.765366
 31
0.124234
 12
2.000000
 22
0.000001
 32
0.124234
 13
2.000000
 23
0.000001
 33
0.060184
 62
0
  0
3DFACE
  8
Cylinder
 10
1.847759
 20
-0.765366
 30
0.060184
 11
0.573351
 21
-0.573350
 31
-1.106125
 12
1.414213
 22
-1.414212
 32
0.060184
 13
1.414213
 23
-1.414212
 33
0.060184
 62
1
  0
3DFACE
  8
Cylinder
 10
0.765367
 20
-1.847758
 30
0.060184
 11
-0.000000
 21
-0.810840
 31
-1.106125
 12
0.000000
 22
-1.999999
 32
0.060184
 13
0.000000
 23
-1.999999
 33
0.060184
 62
1
  0
3DFACE
  8
Cylinder
 10
-0.000000
 20
-0.810840
 30
-1.106125
 11
-0.765367
 21
-1.847759
 31
0.060184
 12
0.000000
 22
-1.999999
 32
0.060184
 13
0.000000
 23
-1.999999
 33
0.060184
 62
1
  0
3DFACE
  8
Cylinder
 10
-0.765367
 20
-1.847759
 30
0.060184
 11
-0.573351
 21
-0.573350
 31
-1.106125
 12
-1.414213
 22
-1.414214
 32
0.060184
 13
-1.414213
 23
-1.414214
 33
0.060184
 62
1
  0
3DFACE
  8
Cylinder
 10
-0.810844
 20
0.000000
 30
-1.106121
 11
-1.847759
 21
0.765366
 31
0.060185
 12
-2.000000
 22
-0.000001
 32
0.060184
 13
-2.000000
 23
-0.000001
 33
0.060184
 62
1
  0
3DFACE
  8
Cylinder
 10
-0.573353
 20
0.573353
 30
-1.106122
 11
-0.765367
 21
1.847758
 31
0.060185
 12
-1.414213
 22
1.414212
 32
0.060185
 13
-1.414213
 23
1.414212
 33
0.060185
 62
1
  0
3DFACE
  8
Cylinder
 10
-1.847759
 20
0.765366
 30
0.060185
 11
-0.573353
 21
0.573353
 31
-1.106122
 12
-1.414213
 22
1.414212
 32
0.060185
 13
-1.414213
 23
1.414212
 33
0.060185
 62
1
  0
3DFACE
  8
Cylinder
 10
1.847759
 20
0.765367
 30
0.060184
 11
0.810842
 21
0.000001
 31
-1.106123
 12
2.000000
 22
0.000001
 32
0.060184
 13
2.000000
 23
0.000001
 33
0.060184
 62
1
  0
3DFACE
  8
Cylinder
 10
-0.765367
 20
1.847758
 30
0.060185
 11
-0.000000
 21
0.810846
 31
-1.106119
 12
-0.000000
 22
1.999999
 32
0.060185
 13
-0.000000
 23
1.999999
 33
0.060185
 62
1
  0
3DFACE
  8
Cylinder
 10
-0.573353
 20
0.573353
 30
-1.106122
 11
0.000000
 21
0.000000
 31
-1.804689
 12
-0.000000
 22
0.810846
 32
-1.106119
 13
-0.765367
 23
1.847758
 33
0.060185
 62
1
  0
3DFACE
  8
Cylinder
 10
-0.000000
 20
0.810846
 30
-1.106119
 11
0.765367
 21
1.847759
 31
0.060185
 12
-0.000000
 22
1.999999
 32
0.060185
 13
-0.000000
 23
1.999999
 33
0.060185
 62
1
  0
3DFACE
  8
Cylinder
 10
0.765367
 20
1.847759
 30
0.060185
 11
0.573354
 21
0.573355
 31
-1.106120
 12
1.414213
 22
1.414214
 32
0.060184
 13
1.414213
 23
1.414214
 33
0.060184
 62
1
  0
3DFACE
  8
Cylinder
 10
-0.000000
 20
0.810846
 30
-1.106119
 11
0.000000
 21
0.000000
 31
-1.804689
 12
0.573354
 22
0.573355
 32
-1.106120
 13
0.765367
 23
1.847759
 33
0.060185
 62
1
  0
3DFACE
  8
Cylinder
 10
0.573354
 20
0.573355
 30
-1.106120
 11
1.847759
 21
0.765367
 31
0.060184
 12
1.414213
 22
1.414214
 32
0.060184
 13
1.414213
 23
1.414214
 33
0.060184
 62
1
  0
3DFACE
  8
Cylinder
 10
0.810842
 20
0.000001
 30
-1.106123
 11
1.847759
 21
-0.765366
 31
0.060184
 12
2.000000
 22
0.000001
 32
0.060184
 13
2.000000
 23
0.000001
 33
0.060184
 62
1
  0
3DFACE
  8
Cylinder
 10
0.573354
 20
0.573355
 30
-1.106120
 11
0.000000
 21
0.000000
 31
-1.804689
 12
0.810842
 22
0.000001
 32
-1.106123
 13
1.847759
 23
0.765367
 33
0.060184
 62
1
  0
3DFACE
  8
Cylinder
 10
0.573351
 20
-0.573350
 30
-1.106125
 11
0.765367
 21
-1.847758
 31
0.060184
 12
1.414213
 22
-1.414212
 32
0.060184
 13
1.414213
 23
-1.414212
 33
0.060184
 62
1
  0
3DFACE
  8
Cylinder
 10
0.810842
 20
0.000001
 30
-1.106123
 11
0.000000
 21
0.000000
 31
-1.804689
 12
0.573351
 22
-0.573350
 32
-1.106125
 13
1.847759
 23
-0.765366
 33
0.060184
 62
1
  0
3DFACE
  8
Cylinder
 10
-0.573351
 20
-0.573350
 30
-1.106125
 11
-1.847759
 21
-0.765367
 31
0.060184
 12
-1.414213
 22
-1.414214
 32
0.060184
 13
-1.414213
 23
-1.414214
 33
0.060184
 62
1
  0
3DFACE
  8
Cylinder
 10
0.573351
 20
-0.573350
 30
-1.106125
 11
0.000000
 21
0.000000
 31
-1.804689
 12
-0.000000
 22
-0.810840
 32
-1.106125
 13
0.765367
 23
-1.847758
 33
0.060184
 62
1
  0
3DFACE
  8
Cylinder
 10
-1.847759
 20
-0.765367
 30
0.060184
 11
-0.810844
 21
0.000000
 31
-1.106121
 12
-2.000000
 22
-0.000001
 32
0.060184
 13
-2.000000
 23
-0.000001
 33
0.060184
 62
1
  0
3DFACE
  8
Cylinder
 10
-0.000000
 20
-0.810840
 30
-1.106125
 11
0.000000
 21
0.000000
 31
-1.804689
 12
-0.573351
 22
-0.573350
 32
-1.106125
 13
-0.765367
 23
-1.847759
 33
0.060184
 62
1
  0
3DFACE
  8
Cylinder
 10
-1.847759
 20
0.765366
 30
0.060185
 11
-0.810844
 21
0.000000
 31
-1.106121
 12
0.000000
 22
0.000000
 32
-1.804689
 13
-0.573353
 23
0.573353
 33
-1.106122
 62
1
  0
3DFACE
  8
Cylinder
 10
-0.573351
 20
-0.573350
 30
-1.106125
 11
0.000000
 21
0.000000
 31
-1.804689
 12
-0.810844
 22
0.000000
 32
-1.106121
 13
-1.847759
 23
-0.765367
 33
0.060184
 62
1
  0
3DFACE
  8
Cylinder
 10
-0.971147
 20
0.971146
 30
0.783258
 11
-1.847759
 21
0.765366
 31
0.124233
 12
-1.414213
 22
1.414212
 32
0.124233
 13
-1.414213
 23
1.414212
 33
0.124233
 62
1
  0
3DFACE
  8
Cylinder
 10
-0.000000
 20
1.373411
 30
0.783255
 11
-0.765367
 21
1.847758
 31
0.124233
 12
-0.000000
 22
1.999999
 32
0.124233
 13
-0.000000
 23
1.999999
 33
0.124233
 62
1
  0
3DFACE
  8
Cylinder
 10
0.765367
 20
1.847759
 30
0.124233
 11
-0.000000
 21
1.373411
 31
0.783255
 12
-0.000000
 22
1.999999
 32
0.124233
 13
-0.000000
 23
1.999999
 33
0.124233
 62
1
  0
3DFACE
  8
Cylinder
 10
0.971147
 20
0.971147
 30
0.783258
 11
0.765367
 21
1.847759
 31
0.124233
 12
1.414213
 22
1.414214
 32
0.124233
 13
1.414213
 23
1.414214
 33
0.124233
 62
1
  0
3DFACE
  8
Cylinder
 10
1.414213
 20
-1.414212
 30
0.060184
 11
1.414213
 21
-1.414212
 31
0.124234
 12
1.847759
 22
-0.765366
 32
0.124234
 13
1.847759
 23
-0.765366
 33
0.060184
 62
0
  0
3DFACE
  8
Cylinder
 10
0.765367
 20
-1.847758
 30
0.060184
 11
0.765367
 21
-1.847758
 31
0.124233
 12
1.414213
 22
-1.414212
 32
0.124234
 13
1.414213
 23
-1.414212
 33
0.060184
 62
0
  0
3DFACE
  8
Cylinder
 10
0.000000
 20
-1.999999
 30
0.060184
 11
0.000000
 21
-1.999999
 31
0.124233
 12
0.765367
 22
-1.847758
 32
0.124233
 13
0.765367
 23
-1.847758
 33
0.060184
 62
0
  0
3DFACE
  8
Cylinder
 10
-0.765367
 20
-1.847759
 30
0.060184
 11
-0.765367
 21
-1.847759
 31
0.124233
 12
0.000000
 22
-1.999999
 32
0.124233
 13
0.000000
 23
-1.999999
 33
0.060184
 62
0
  0
3DFACE
  8
Cylinder
 10
-1.414213
 20
-1.414214
 30
0.060184
 11
-1.414213
 21
-1.414214
 31
0.124233
 12
-0.765367
 22
-1.847759
 32
0.124233
 13
-0.765367
 23
-1.847759
 33
0.060184
 62
0
  0
3DFACE
  8
Cylinder
 10
-1.847759
 20
-0.765367
 30
0.060184
 11
-1.847759
 21
-0.765367
 31
0.124234
 12
-1.414213
 22
-1.414214
 32
0.124233
 13
-1.414213
 23
-1.414214
 33
0.060184
 62
0
  0
3DFACE
  8
Cylinder
 10
-2.000000
 20
-0.000001
 30
0.060184
 11
-2.000000
 21
-0.000001
 31
0.124234
 12
-1.847759
 22
-0.765367
 32
0.124234
 13
-1.847759
 23
-0.765367
 33
0.060184
 62
0
  0
3DFACE
  8
Cylinder
 10
-1.847759
 20
0.765366
 30
0.060185
 11
-1.847759
 21
0.765366
 31
0.124233
 12
-2.000000
 22
-0.000001
 32
0.124234
 13
-2.000000
 23
-0.000001
 33
0.060184
 62
0
  0
3DFACE
  8
Cylinder
 10
-1.373409
 20
-0.000001
 30
0.783259
 11
-1.847759
 21
-0.765367
 31
0.124234
 12
-2.000000
 22
-0.000001
 32
0.124234
 13
-2.000000
 23
-0.000001
 33
0.124234
 62
1
  0
3DFACE
  8
Cylinder
 10
-1.847759
 20
0.765366
 30
0.124233
 11
-1.373409
 21
-0.000001
 31
0.783259
 12
-2.000000
 22
-0.000001
 32
0.124234
 13
-2.000000
 23
-0.000001
 33
0.124234
 62
1
  0
3DFACE
  8
Cylinder
 10
-0.765367
 20
1.847758
 30
0.124233
 11
-0.971147
 21
0.971146
 31
0.783258
 12
-1.414213
 22
1.414212
 32
0.124233
 13
-1.414213
 23
1.414212
 33
0.124233
 62
1
  0
3DFACE
  8
Cylinder
 10
-0.971147
 20
0.971146
 30
0.783258
 11
-0.765367
 21
1.847758
 31
0.124233
 12
-0.000000
 22
1.373411
 32
0.783255
 13
-0.394142
 23
0.951795
 33
0.998174
 62
1
  0
3DFACE
  8
Cylinder
 10
1.847759
 20
0.765367
 30
0.124234
 11
0.971147
 21
0.971147
 31
0.783258
 12
1.414213
 22
1.414214
 32
0.124233
 13
1.414213
 23
1.414214
 33
0.124233
 62
1
  0
3DFACE
  8
Cylinder
 10
-0.000000
 20
1.373411
 30
0.783255
 11
0.765367
 21
1.847759
 31
0.124233
 12
0.971147
 22
0.971147
 32
0.783258
 13
0.394323
 23
0.951721
 33
0.998173
 62
1
  0
3DFACE
  8
Cylinder
 10
1.847759
 20
-0.765366
 30
0.124234
 11
1.373411
 21
0.000001
 31
0.783257
 12
2.000000
 22
0.000001
 32
0.124234
 13
2.000000
 23
0.000001
 33
0.124234
 62
1
  0
3DFACE
  8
Cylinder
 10
1.373411
 20
0.000001
 30
0.783257
 11
1.847759
 21
0.765367
 31
0.124234
 12
2.000000
 22
0.000001
 32
0.124234
 13
2.000000
 23
0.000001
 33
0.124234
 62
1
  0
3DFACE
  8
Cylinder
 10
0.971147
 20
0.971147
 30
0.783258
 11
1.847759
 21
0.765367
 31
0.124234
 12
1.373411
 22
0.000001
 32
0.783257
 13
0.951796
 23
0.394142
 33
0.998174
 62
1
  0
3DFACE
  8
Cylinder
 10
0.971148
 20
-0.971147
 30
0.783257
 11
1.847759
 21
-0.765366
 31
0.124234
 12
1.414213
 22
-1.414212
 32
0.124234
 13
1.414213
 23
-1.414212
 33
0.124234
 62
1
  0
3DFACE
  8
Cylinder
 10
0.765367
 20
-1.847758
 30
0.124233
 11
0.971148
 21
-0.971147
 31
0.783257
 12
1.414213
 22
-1.414212
 32
0.124234
 13
1.414213
 23
-1.414212
 33
0.124234
 62
1
  0
3DFACE
  8
Cylinder
 10
0.000000
 20
-1.373411
 30
0.783256
 11
0.765367
 21
-1.847758
 31
0.124233
 12
0.000000
 22
-1.999999
 32
0.124233
 13
0.000000
 23
-1.999999
 33
0.124233
 62
1
  0
3DFACE
  8
Cylinder
 10
-0.971148
 20
-0.971148
 30
0.783257
 11
-0.765367
 21
-1.847759
 31
0.124233
 12
-1.414213
 22
-1.414214
 32
0.124233
 13
-1.414213
 23
-1.414214
 33
0.124233
 62
1
  0
3DFACE
  8
Cylinder
 10
-0.765367
 20
-1.847759
 30
0.124233
 11
0.000000
 21
-1.373411
 31
0.783256
 12
0.000000
 22
-1.999999
 32
0.124233
 13
0.000000
 23
-1.999999
 33
0.124233
 62
1
  0
3DFACE
  8
Cylinder
 10
-1.847759
 20
-0.765367
 30
0.124234
 11
-0.971148
 21
-0.971148
 31
0.783257
 12
-1.414213
 22
-1.414214
 32
0.124233
 13
-1.414213
 23
-1.414214
 33
0.124233
 62
1
  0
3DFACE
  8
Cylinder
 10
-1.847759
 20
0.765366
 30
0.124233
 11
-0.971147
 21
0.971146
 31
0.783258
 12
-0.951796
 22
0.394142
 32
0.998174
 13
-1.373409
 23
-0.000001
 33
0.783259
 62
1
  0
3DFACE
  8
Cylinder
 10
-0.394142
 20
0.951795
 30
0.998174
 11
-0.000000
 21
1.373411
 31
0.783255
 12
0.394323
 22
0.951721
 32
0.998173
 13
0.394323
 23
0.951721
 33
0.998173
 62
1
  0
3DFACE
  8
Cylinder
 10
-0.951796
 20
0.394142
 30
0.998174
 11
-0.971147
 21
0.971146
 31
0.783258
 12
-0.394142
 22
0.951795
 32
0.998174
 13
-0.394142
 23
0.951795
 33
0.998174
 62
1
  0
3DFACE
  8
Cylinder
 10
0.394323
 20
0.951721
 30
0.998173
 11
0.971147
 21
0.971147
 31
0.783258
 12
0.951796
 22
0.394142
 32
0.998174
 13
0.951796
 23
0.394142
 33
0.998174
 62
1
  0
3DFACE
  8
Cylinder
 10
1.373411
 20
0.000001
 30
0.783257
 11
1.847759
 21
-0.765366
 31
0.124234
 12
0.971148
 22
-0.971147
 32
0.783257
 13
0.951722
 23
-0.394321
 33
0.998174
 62
1
  0
3DFACE
  8
Cylinder
 10
0.951796
 20
0.394142
 30
0.998174
 11
1.373411
 21
0.000001
 31
0.783257
 12
0.951722
 22
-0.394321
 32
0.998174
 13
0.951722
 23
-0.394321
 33
0.998174
 62
1
  0
3DFACE
  8
Cylinder
 10
0.971148
 20
-0.971147
 30
0.783257
 11
0.765367
 21
-1.847758
 31
0.124233
 12
0.000000
 22
-1.373411
 32
0.783256
 13
0.394142
 23
-0.951796
 33
0.998174
 62
1
  0
3DFACE
  8
Cylinder
 10
0.000000
 20
-1.373411
 30
0.783256
 11
-0.765367
 21
-1.847759
 31
0.124233
 12
-0.971148
 22
-0.971148
 32
0.783257
 13
-0.394322
 23
-0.951721
 33
0.998174
 62
1
  0
3DFACE
  8
Cylinder
 10
-0.971148
 20
-0.971148
 30
0.783257
 11
-1.847759
 21
-0.765367
 31
0.124234
 12
-1.373409
 22
-0.000001
 32
0.783259
 13
-0.951797
 23
-0.394142
 33
0.998174
 62
1
  0
3DFACE
  8
Cylinder
 10
-0.951797
 20
-0.394142
 30
0.998174
 11
-1.373409
 21
-0.000001
 31
0.783259
 12
-0.951796
 22
0.394142
 32
0.998174
 13
-0.951796
 23
0.394142
 33
0.998174
 62
1
  0
3DFACE
  8
Cylinder
 10
-0.394322
 20
-0.951721
 30
0.998174
 11
-0.971148
 21
-0.971148
 31
0.783257
 12
-0.951797
 22
-0.394142
 32
0.998174
 13
-0.951797
 23
-0.394142
 33
0.998174
 62
1
  0
3DFACE
  8
Cylinder
 10
0.394142
 20
-0.951796
 30
0.998174
 11
0.000000
 21
-1.373411
 31
0.783256
 12
-0.394322
 22
-0.951721
 32
0.998174
 13
-0.394322
 23
-0.951721
 33
0.998174
 62
1
  0
3DFACE
  8
Cylinder
 10
0.951722
 20
-0.394321
 30
0.998174
 11
0.971148
 21
-0.971147
 31
0.783257
 12
0.394142
 22
-0.951796
 32
0.998174
 13
0.394142
 23
-0.951796
 33
0.998174
 62
1
  0
3DFACE
  8
Cylinder
 10
-0.951797
 20
-0.394142
 30
0.998174
 11
0.394142
 21
-0.951796
 31
0.998174
 12
-0.394322
 22
-0.951721
 32
0.998174
 13
-0.394322
 23
-0.951721
 33
0.998174
 62
1
  0
3DFACE
  8
Cylinder
 10
0.951722
 20
-0.394321
 30
0.998174
 11
0.394142
 21
-0.951796
 31
0.998174
 12
-0.951797
 22
-0.394142
 32
0.998174
 13
-0.951797
 23
-0.394142
 33
0.998174
 62
1
  0
3DFACE
  8
Cylinder
 10
-0.951796
 20
0.394142
 30
0.998174
 11
0.951722
 21
-0.394321
 31
0.998174
 12
-0.951797
 22
-0.394142
 32
0.998174
 13
-0.951797
 23
-0.394142
 33
0.998174
 62
1
  0
3DFACE
  8
Cylinder
 10
0.951796
 20
0.394142
 30
0.998174
 11
0.951722
 21
-0.394321
 31
0.998174
 12
-0.951796
 22
0.394142
 32
0.998174
 13
-0.951796
 23
0.394142
 33
0.998174
 62
1
  0
3DFACE
  8
Cylinder
 10
-0.394142
 20
0.951795
 30
0.998174
 11
0.951796
 21
0.394142
 31
0.998174
 12
-0.951796
 22
0.394142
 32
0.998174
 13
-0.951796
 23
0.394142
 33
0.998174
 62
1
  0
3DFACE
  8
Cylinder
 10
0.394323
 20
0.951721
 30
0.998173
 11
0.951796
 21
0.394142
 31
0.998174
 12
-0.394142
 22
0.951795
 32
0.998174
 13
-0.394142
 23
0.951795
 33
0.998174
 62
1
 0
ENDSEC
 0
EOF
